<svg width="46" height="42" viewBox="0 0 46 42" fill="none" xmlns="http://www.w3.org/2000/svg">
<path d="M14.2 9.8C21.4902 9.8 27.4001 7.83005 27.4001 5.4C27.4001 2.96995 21.4902 1 14.2 1C6.90985 1 1 2.96995 1 5.4C1 7.83005 6.90985 9.8 14.2 9.8Z" stroke="#28323C" stroke-width="2" stroke-linecap="round" stroke-linejoin="round"/>
<path d="M27.4001 25.9333C27.4001 28.368 21.5334 30.3334 14.2 30.3334C6.86668 30.3334 1 28.368 1 25.9333" stroke="#28323C" stroke-width="2" stroke-linecap="round" stroke-linejoin="round"/>
<path d="M27.4001 15.6667C27.4001 18.1014 21.5334 20.0667 14.2 20.0667C6.86668 20.0667 1 18.1014 1 15.6667" stroke="#28323C" stroke-width="2" stroke-linecap="round" stroke-linejoin="round"/>
<path d="M1 5.3999V36.1999C1 38.6346 6.86668 40.5999 14.2 40.5999C21.5334 40.5999 27.4001 38.6346 27.4001 36.1999V5.3999" stroke="#28323C" stroke-width="2" stroke-linecap="round" stroke-linejoin="round"/>
<path d="M46.0004 23C46.0004 22.4477 45.5527 22 45.0004 22C44.4481 22 44.0004 22.4477 44.0004 23H46.0004ZM27.4004 10.3298L27.2088 9.3483C26.7392 9.43997 26.4004 9.85136 26.4004 10.3298H27.4004ZM27.4004 35.6744H26.4004C26.4004 36.1532 26.7398 36.5648 27.2098 36.6561L27.4004 35.6744ZM44.0004 13.76C44.0004 13.8744 43.9331 14.138 43.4547 14.5197C42.9862 14.8936 42.2467 15.2742 41.244 15.6126C39.2489 16.286 36.4285 16.72 33.2671 16.72V18.72C36.5858 18.72 39.6321 18.2675 41.8836 17.5076C43.0042 17.1294 43.9831 16.6568 44.7021 16.0831C45.4111 15.5173 46.0004 14.7391 46.0004 13.76H44.0004ZM33.2671 10.8C36.4285 10.8 39.2489 11.234 41.244 11.9073C42.2467 12.2457 42.9862 12.6264 43.4547 13.0002C43.9331 13.382 44.0004 13.6456 44.0004 13.76H46.0004C46.0004 12.7809 45.4111 12.0027 44.7021 11.4369C43.9831 10.8632 43.0042 10.3906 41.8836 10.0124C39.6321 9.25249 36.5858 8.79999 33.2671 8.79999V10.8ZM44.0004 23C44.0004 23.1187 43.9317 23.3831 43.458 23.7632C42.9929 24.1363 42.2578 24.5164 41.258 24.8543C39.2684 25.5268 36.4485 25.96 33.2671 25.96V27.96C36.6041 27.96 39.6509 27.5087 41.8984 26.749C43.0172 26.3709 43.9931 25.898 44.7096 25.3231C45.4173 24.7553 46.0004 23.9768 46.0004 23H44.0004ZM33.2671 37.2C36.6041 37.2 39.6509 36.7487 41.8984 35.989C43.0172 35.6109 43.9931 35.138 44.7096 34.5631C45.4173 33.9953 46.0004 33.2168 46.0004 32.24H44.0004C44.0004 32.3587 43.9317 32.6231 43.458 33.0032C42.9929 33.3763 42.2578 33.7564 41.258 34.0943C39.2684 34.7668 36.4485 35.2 33.2671 35.2V37.2ZM46.0004 32.24V13.76H44.0004V32.24H46.0004ZM27.592 11.3112C29.2485 10.9878 31.1876 10.8 33.2671 10.8V8.79999C31.0722 8.79999 29.0039 8.99782 27.2088 9.3483L27.592 11.3112ZM33.2671 16.72C31.1876 16.72 29.2485 16.5321 27.592 16.2087L27.2088 18.1717C29.0039 18.5222 31.0722 18.72 33.2671 18.72V16.72ZM26.4004 10.3298V17.1902H28.4004V10.3298H26.4004ZM33.2671 25.96C31.1813 25.96 29.2438 25.7737 27.591 25.4528L27.2098 27.4161C29.0011 27.764 31.0673 27.96 33.2671 27.96V25.96ZM28.4004 26.4344V17.1902H26.4004V26.4344H28.4004ZM27.2098 36.6561C29.0011 37.004 31.0673 37.2 33.2671 37.2V35.2C31.1813 35.2 29.2438 35.0137 27.591 34.6928L27.2098 36.6561ZM26.4004 26.4344V35.6744H28.4004V26.4344H26.4004Z" fill="#28323C"/>
</svg>
